# xmcd CD database file
#
# Track frame offsets:
#	150
#	13282
#	32285
#	48437
#	61722
#	81804
#	96975
#	108562
#	122975
#	136510
#	150202
#
# Disc length: 2553 seconds
#
# Revision: 3
# Processed by: cddbd v1.5PL3 Copyright (c) Steve Scherf et al.
# Submitted via: CDex 1.51
#
DISCID=7e09f70b
DTITLE=Gary Allan - It Would Be You
DYEAR=1998
DGENRE=Country
TTITLE0=It Would Be You
TTITLE1=No Man In His Wrong Heart
TTITLE2=Don't Leave Her Lonely Too Long
TTITLE3=I'll Take Today
TTITLE4=I Ain't Runnin' Yet
TTITLE5=She Loves Me, She Don't Love You
TTITLE6=I've Got A Quarter In My Pocket
TTITLE7=Baby I Will
TTITLE8=Red Lips, Blue Eyes, Little White Lies
TTITLE9=It Took Us All Night Long To Say Goodbye
TTITLE10=Forgotten, But Not Gone
EXTD=YEAR: 1998
EXTT0=
EXTT1=
EXTT2=
EXTT3=
EXTT4=
EXTT5=
EXTT6=
EXTT7=
EXTT8=
EXTT9=
EXTT10=
PLAYORDER=
